<svg id="Microphone" height="512" viewBox="0 0 64 64" width="512" xmlns="http://www.w3.org/2000/svg" xmlns:xlink="http://www.w3.org/1999/xlink"><linearGradient id="linear-gradient" gradientUnits="userSpaceOnUse" x1="4.5" x2="67.242" y1="72.5" y2="9.759"><stop offset="0" stop-color="#003f8a"/><stop offset=".518" stop-color="#00d7df"/><stop offset="1" stop-color="#006df0"/></linearGradient><linearGradient id="linear-gradient-2" x1="-7" x2="55.742" xlink:href="#linear-gradient" y1="61" y2="-1.742"/><linearGradient id="linear-gradient-3" x1="-2.75" x2="59.992" xlink:href="#linear-gradient" y1="65.25" y2="2.508"/><linearGradient id="linear-gradient-4" x1="-15.5" x2="47.242" xlink:href="#linear-gradient" y1="52.5" y2="-10.242"/><linearGradient id="linear-gradient-5" x1="-17.5" x2="45.242" xlink:href="#linear-gradient" y1="50.5" y2="-12.242"/><linearGradient id="linear-gradient-6" x1="-18.5" x2="44.242" xlink:href="#linear-gradient" y1="49.5" y2="-13.242"/><linearGradient id="linear-gradient-7" x1="-21.5" x2="41.242" xlink:href="#linear-gradient" y1="46.5" y2="-16.242"/><linearGradient id="linear-gradient-8" x1="-21.75" x2="40.992" xlink:href="#linear-gradient" y1="46.25" y2="-16.492"/><linearGradient id="linear-gradient-9" x1="-.5" x2="62.242" xlink:href="#linear-gradient" y1="67.5" y2="4.758"/><linearGradient id="linear-gradient-10" x1="1.5" x2="64.242" xlink:href="#linear-gradient" y1="69.5" y2="6.758"/><linearGradient id="linear-gradient-11" x1="4.5" x2="67.242" xlink:href="#linear-gradient" y1="72.5" y2="9.758"/><linearGradient id="linear-gradient-12" x1="5.5" x2="68.242" xlink:href="#linear-gradient" y1="73.5" y2="10.758"/><linearGradient id="linear-gradient-13" x1="1.25" x2="63.992" xlink:href="#linear-gradient" y1="69.25" y2="6.508"/><path d="m48 32a1 1 0 0 0 -2 0 13.015 13.015 0 0 1 -13 13h-2a13.015 13.015 0 0 1 -13-13 1 1 0 0 0 -2 0 15.012 15.012 0 0 0 13 14.851v10.149h-5a1 1 0 0 0 -.8.4l-3 4a1 1 0 0 0 .8 1.6h22a1 1 0 0 0 .8-1.6l-3-4a1 1 0 0 0 -.8-.4h-5v-10.149a15.012 15.012 0 0 0 13-14.851zm-7 29h-18l1.5-2h15zm-8-4h-2v-10h2z" fill="url(#linear-gradient)"/><path d="m31 43h2a11.013 11.013 0 0 0 11-11v-20a11.013 11.013 0 0 0 -11-11h-2a11.013 11.013 0 0 0 -11 11v20a11.013 11.013 0 0 0 11 11zm-9-14h4a1 1 0 0 0 0-2h-4v-4h4a1 1 0 0 0 0-2h-4v-4h4a1 1 0 0 0 0-2h-4v-3a9.011 9.011 0 0 1 9-9h2a9.011 9.011 0 0 1 9 9v3h-4a1 1 0 0 0 0 2h4v4h-4a1 1 0 0 0 0 2h4v4h-4a1 1 0 0 0 0 2h4v3a9.011 9.011 0 0 1 -9 9h-2a9.011 9.011 0 0 1 -9-9z" fill="url(#linear-gradient-2)"/><path d="m34 29h1a1 1 0 0 0 0-2h-1a1 1 0 0 0 0 2z" fill="url(#linear-gradient-3)"/><path d="m17 25a1 1 0 0 0 1-1v-8a1 1 0 0 0 -2 0v8a1 1 0 0 0 1 1z" fill="url(#linear-gradient-4)"/><path d="m13 11a1 1 0 0 0 -1 1v16a1 1 0 0 0 2 0v-16a1 1 0 0 0 -1-1z" fill="url(#linear-gradient-5)"/><path d="m9 18a1 1 0 0 0 -1 1v6a1 1 0 0 0 2 0v-6a1 1 0 0 0 -1-1z" fill="url(#linear-gradient-6)"/><path d="m5 7a1 1 0 0 0 -1 1v24a1 1 0 0 0 2 0v-24a1 1 0 0 0 -1-1z" fill="url(#linear-gradient-7)"/><path d="m9 14a1 1 0 0 0 -1 1v1a1 1 0 0 0 2 0v-1a1 1 0 0 0 -1-1z" fill="url(#linear-gradient-8)"/><path d="m47 15a1 1 0 0 0 -1 1v8a1 1 0 0 0 2 0v-8a1 1 0 0 0 -1-1z" fill="url(#linear-gradient-9)"/><path d="m51 11a1 1 0 0 0 -1 1v16a1 1 0 0 0 2 0v-16a1 1 0 0 0 -1-1z" fill="url(#linear-gradient-10)"/><path d="m55 18a1 1 0 0 0 -1 1v6a1 1 0 0 0 2 0v-6a1 1 0 0 0 -1-1z" fill="url(#linear-gradient-11)"/><path d="m59 7a1 1 0 0 0 -1 1v24a1 1 0 0 0 2 0v-24a1 1 0 0 0 -1-1z" fill="url(#linear-gradient-12)"/><path d="m55 14a1 1 0 0 0 -1 1v1a1 1 0 0 0 2 0v-1a1 1 0 0 0 -1-1z" fill="url(#linear-gradient-13)"/></svg>