<svg height="512" viewBox="0 0 64 64" width="512" xmlns="http://www.w3.org/2000/svg" xmlns:xlink="http://www.w3.org/1999/xlink"><linearGradient id="linear-gradient" gradientUnits="userSpaceOnUse" x1="1" x2="61.075" y1="60" y2="-.075"><stop offset="0" stop-color="#003f8a"/><stop offset=".518" stop-color="#00d7df"/><stop offset="1" stop-color="#006df0"/></linearGradient><linearGradient id="linear-gradient-2" x1=".608" x2="60.683" xlink:href="#linear-gradient" y1="59.608" y2="-.467"/><linearGradient id="linear-gradient-3" x1="-6" x2="54.075" xlink:href="#linear-gradient" y1="53" y2="-7.075"/><linearGradient id="linear-gradient-4" x1="8" x2="68.075" xlink:href="#linear-gradient" y1="67" y2="6.925"/><linearGradient id="linear-gradient-8" x1="5.459" x2="65.534" xlink:href="#linear-gradient" y1="64.459" y2="4.384"/><linearGradient id="linear-gradient-9" x1="30.75" x2="90.825" xlink:href="#linear-gradient" y1="89.75" y2="29.675"/><path d="m53 32a24 24 0 1 0 -24 24 24.028 24.028 0 0 0 24-24zm-46 0a22 22 0 1 1 22 22 22.025 22.025 0 0 1 -22-22z" fill="url(#linear-gradient)"/><path d="m37.922 16.363a18.148 18.148 0 0 1 6.15 5.793 1 1 0 0 0 1.674-1.1 20.179 20.179 0 0 0 -6.83-6.433 1 1 0 0 0 -.994 1.736z" fill="url(#linear-gradient-2)"/><path d="m15 26a6 6 0 1 0 6 6 6.006 6.006 0 0 0 -6-6zm0 10a4 4 0 1 1 4-4 4 4 0 0 1 -4 4z" fill="url(#linear-gradient-3)"/><path d="m43 38a6 6 0 1 0 -6-6 6.006 6.006 0 0 0 6 6zm0-10a4 4 0 1 1 -4 4 4 4 0 0 1 4-4z" fill="url(#linear-gradient-4)"/><path d="m35 46a6 6 0 1 0 -6 6 6.006 6.006 0 0 0 6-6zm-10 0a4 4 0 1 1 4 4 4 4 0 0 1 -4-4z" fill="url(#linear-gradient-4)"/><path d="m29 24a6 6 0 1 0 -6-6 6.006 6.006 0 0 0 6 6zm0-10a4 4 0 1 1 -4 4 4 4 0 0 1 4-4z" fill="url(#linear-gradient-3)"/><path d="m26 32a3 3 0 1 0 3-3 3 3 0 0 0 -3 3zm4 0a1 1 0 1 1 -1-1 1 1 0 0 1 1 1z" fill="url(#linear-gradient)"/><path d="m58 58h-18.628q1.194-.479 2.331-1.06a.981.981 0 0 0 .297.06h10a1 1 0 0 0 0-2h-7.058q.689-.48 1.347-1h8.711a1 1 0 0 0 0-2h-6.431a27.981 27.981 0 1 0 -19.569 8h29a1 1 0 0 0 0-2zm-55-26a26 26 0 1 1 26 26 26.03 26.03 0 0 1 -26-26z" fill="url(#linear-gradient-8)"/><path d="m62 58h-1a1 1 0 0 0 0 2h1a1 1 0 0 0 0-2z" fill="url(#linear-gradient-9)"/></svg>