<svg height="512" viewBox="0 0 64 64" width="512" xmlns="http://www.w3.org/2000/svg" xmlns:xlink="http://www.w3.org/1999/xlink"><linearGradient id="linear-gradient" gradientUnits="userSpaceOnUse" x1="-.663" x2="65.067" y1="62.337" y2="-3.394"><stop offset="0" stop-color="#003f8a"/><stop offset=".518" stop-color="#00d7df"/><stop offset="1" stop-color="#006df0"/></linearGradient><linearGradient id="linear-gradient-2" x1="-13.845" x2="51.886" xlink:href="#linear-gradient" y1="49.155" y2="-16.575"/><linearGradient id="linear-gradient-3" x1="-13.5" x2="52.231" xlink:href="#linear-gradient" y1="49.5" y2="-16.231"/><linearGradient id="linear-gradient-4" x1="-2" x2="63.731" xlink:href="#linear-gradient" y1="61" y2="-4.731"/><linearGradient id="linear-gradient-5" x1="-5.5" x2="60.231" xlink:href="#linear-gradient" y1="57.5" y2="-8.231"/><linearGradient id="linear-gradient-6" x1="1.5" x2="67.231" xlink:href="#linear-gradient" y1="64.5" y2="-1.231"/><linearGradient id="linear-gradient-7" x1="-1.75" x2="63.981" xlink:href="#linear-gradient" y1="61.25" y2="-4.481"/><linearGradient id="linear-gradient-8" x1="-1.25" x2="64.481" xlink:href="#linear-gradient" y1="61.75" y2="-3.981"/><g id="Music_player-2" data-name="Music player"><path d="m58 7h-52a5.006 5.006 0 0 0 -5 5v18a5.006 5.006 0 0 0 5 5h34v6.257l-1.646-1.647a3 3 0 0 0 -4.3 4.189l5.046 6.673 1.948 5.844a1 1 0 0 0 .952.684h13a1 1 0 0 0 .976-.783l2-9a.988.988 0 0 0 .024-.217v-7a3 3 0 0 0 -4.1-2.789 3 3 0 0 0 -4.9-1.445 3.113 3.113 0 0 0 -3-.595v-.171h12a5.006 5.006 0 0 0 5-5v-18a5.006 5.006 0 0 0 -5-5zm-15 19a2.981 2.981 0 0 0 -2 .78v-2.78h5v5a3 3 0 0 0 -3-3zm4 11a1 1 0 0 1 1 1v2a1 1 0 0 0 2 0v-2a1 1 0 0 1 2 0v3a1 1 0 0 0 2 0v-1a1 1 0 0 1 2 0v6.89l-1.8 8.11h-11.479l-1.772-5.316a1.037 1.037 0 0 0 -.149-.284l-5.182-6.854a1.11 1.11 0 0 0 -.091-.1 1 1 0 0 1 1.414-1.414l3.354 3.353a1 1 0 0 0 1.705-.714v-14.671a1 1 0 0 1 2 0v11a1 1 0 0 0 2 0v-2a1 1 0 0 1 1-1zm14-7a3 3 0 0 1 -3 3h-12v-2h1a1 1 0 0 0 1-1v-7a1 1 0 0 0 -1-1h-7a1 1 0 0 0 -1 1v7a1 1 0 0 0 1 1v2h-34a3 3 0 0 1 -3-3v-18a3 3 0 0 1 3-3h52a3 3 0 0 1 3 3z" fill="url(#linear-gradient)"/><path d="m20.138 20.144-6.621-4a1 1 0 0 0 -1.517.856v8a1 1 0 0 0 1.517.856l6.621-4a1 1 0 0 0 0-1.712zm-6.138 3.084v-4.456l3.687 2.228z" fill="url(#linear-gradient-2)"/><path d="m15 11a10 10 0 1 0 10 10 10.011 10.011 0 0 0 -10-10zm0 18a8 8 0 1 1 8-8 8.009 8.009 0 0 1 -8 8z" fill="url(#linear-gradient-3)"/><path d="m36 22h-7a1 1 0 0 0 -1 1v7a1 1 0 0 0 1 1h7a1 1 0 0 0 1-1v-7a1 1 0 0 0 -1-1zm-1 7h-5v-5h5z" fill="url(#linear-gradient-4)"/><path d="m29 14h20a1 1 0 0 0 0-2h-20a1 1 0 0 0 0 2z" fill="url(#linear-gradient-5)"/><path d="m52 14h2a1 1 0 0 0 0-2h-2a1 1 0 0 0 0 2z" fill="url(#linear-gradient-6)"/><path d="m58 15h-29a1 1 0 0 0 0 2h29a1 1 0 0 0 0-2z" fill="url(#linear-gradient-7)"/><path d="m54 18h-25a1 1 0 0 0 0 2h25a1 1 0 0 0 0-2z" fill="url(#linear-gradient-8)"/></g></svg>