<svg height="512" viewBox="0 0 64 64" width="512" xmlns="http://www.w3.org/2000/svg" xmlns:xlink="http://www.w3.org/1999/xlink"><linearGradient id="linear-gradient" gradientUnits="userSpaceOnUse" x1=".5" x2="66.508" y1="63.5" y2="-2.508"><stop offset="0" stop-color="#003f8a"/><stop offset=".518" stop-color="#00d7df"/><stop offset="1" stop-color="#006df0"/></linearGradient><linearGradient id="linear-gradient-2" x1="-10.364" x2="55.644" xlink:href="#linear-gradient" y1="52.636" y2="-13.371"/><linearGradient id="linear-gradient-3" x1="-11.805" x2="54.203" xlink:href="#linear-gradient" y1="51.195" y2="-14.812"/><linearGradient id="linear-gradient-4" x1=".5" x2="66.508" xlink:href="#linear-gradient" y1="63.5" y2="-2.508"/><path d="m62.626 17.22a1 1 0 0 0 -.843-.2l-9 2a1 1 0 0 0 -.783.98v.66a22.99 22.99 0 0 0 -42.99 10.86l-2.23.5a1.015 1.015 0 0 0 -.78.98v9.3a3.86 3.86 0 0 0 -1.5-.3 3.286 3.286 0 0 0 -3.5 3 3.286 3.286 0 0 0 3.5 3 3.286 3.286 0 0 0 3.5-3v-8.2l1.44-.32a21.5 21.5 0 0 0 1.41 4.56 2.777 2.777 0 0 0 -.85 1.96 3.286 3.286 0 0 0 3.5 3 2.09 2.09 0 0 0 .25-.01 23 23 0 0 0 41.25-13.99 22.755 22.755 0 0 0 -1-6.69v-1.51l7-1.555v5.055a3.86 3.86 0 0 0 -1.5-.3 3.286 3.286 0 0 0 -3.5 3 3.542 3.542 0 0 0 7 0v-12a1 1 0 0 0 -.374-.78zm-58.126 28.78c-.8 0-1.5-.47-1.5-1s.7-1 1.5-1 1.5.47 1.5 1-.7 1-1.5 1zm3.5-11.25v-.95l7-1.55v.94zm3.39 1.3 3.61-.8v5.05a3.86 3.86 0 0 0 -1.5-.3 3.654 3.654 0 0 0 -.88.1 20.565 20.565 0 0 1 -1.23-4.05zm.61 6.95c0-.53.7-1 1.5-1s1.5.47 1.5 1c0 .4-.41.77-.96.93a2.347 2.347 0 0 1 -.54.07c-.8 0-1.5-.47-1.5-1zm20 10a21.066 21.066 0 0 1 -16.25-7.71 2.819 2.819 0 0 0 1.25-2.29v-12a1.022 1.022 0 0 0 -.37-.78 1.037 1.037 0 0 0 -.85-.2l-4.75 1.06a20.992 20.992 0 0 1 40.97-5.47v3.69a3.86 3.86 0 0 0 -1.5-.3 3.286 3.286 0 0 0 -3.5 3 3.286 3.286 0 0 0 3.5 3 3.8 3.8 0 0 0 2.38-.81 21.013 21.013 0 0 1 -20.88 18.81zm20-21c0 .53-.7 1-1.5 1s-1.5-.47-1.5-1 .7-1 1.5-1 1.5.47 1.5 1zm2-10.246v-.954l7-1.555v.955zm5.5 9.246c-.8 0-1.5-.47-1.5-1s.7-1 1.5-1 1.5.47 1.5 1-.7 1-1.5 1z" fill="url(#linear-gradient)"/><path d="m33 14a1 1 0 0 0 -1-1 18.877 18.877 0 0 0 -13.435 5.565 1 1 0 1 0 1.414 1.414 16.887 16.887 0 0 1 12.021-4.979 1 1 0 0 0 1-1z" fill="url(#linear-gradient-2)"/><path d="m16.2 21.444a19.189 19.189 0 0 0 -1.094 1.856 1 1 0 0 0 .431 1.347.99.99 0 0 0 .457.111 1 1 0 0 0 .89-.541 16.945 16.945 0 0 1 .978-1.658 1 1 0 0 0 -1.662-1.115z" fill="url(#linear-gradient-3)"/><g fill="url(#linear-gradient-4)"><path d="m32 21a11 11 0 1 0 11 11 11.007 11.007 0 0 0 -11-11zm0 20a9 9 0 1 1 9-9 9.014 9.014 0 0 1 -9 9z"/><path d="m32 29a3 3 0 1 0 3 3 3.009 3.009 0 0 0 -3-3zm0 4a1 1 0 1 1 1-1 1 1 0 0 1 -1 1z"/></g></svg>