<svg height="512" viewBox="0 0 64 64" width="512" xmlns="http://www.w3.org/2000/svg" xmlns:xlink="http://www.w3.org/1999/xlink"><linearGradient id="linear-gradient" gradientUnits="userSpaceOnUse" x1="1.5" x2="59.534" y1="62.5" y2="4.466"><stop offset="0" stop-color="#003f8a"/><stop offset=".518" stop-color="#00d7df"/><stop offset="1" stop-color="#006df0"/></linearGradient><linearGradient id="linear-gradient-2" x1="4" x2="62.034" xlink:href="#linear-gradient" y1="65" y2="6.966"/><linearGradient id="linear-gradient-3" x1="9" x2="67.034" xlink:href="#linear-gradient" y1="70" y2="11.966"/><linearGradient id="linear-gradient-4" x1="13" x2="71.034" xlink:href="#linear-gradient" y1="74" y2="15.966"/><linearGradient id="linear-gradient-5" x1="-1" x2="57.034" xlink:href="#linear-gradient" y1="60" y2="1.966"/><linearGradient id="linear-gradient-6" x1="-6" x2="52.034" xlink:href="#linear-gradient" y1="55" y2="-3.034"/><linearGradient id="linear-gradient-7" x1="19.75" x2="77.784" xlink:href="#linear-gradient" y1="80.75" y2="22.716"/><linearGradient id="linear-gradient-8" x1="-4" x2="54.034" xlink:href="#linear-gradient" y1="57" y2="-1.034"/><linearGradient id="linear-gradient-9" x1="-6.5" x2="51.534" xlink:href="#linear-gradient" y1="54.5" y2="-3.534"/><linearGradient id="linear-gradient-10" x1="-1.5" x2="56.534" xlink:href="#linear-gradient" y1="59.5" y2="1.466"/><linearGradient id="linear-gradient-11" x1="3.5" x2="61.534" xlink:href="#linear-gradient" y1="64.5" y2="6.466"/><linearGradient id="linear-gradient-12" x1="-11.5" x2="46.534" xlink:href="#linear-gradient" y1="49.5" y2="-8.534"/><linearGradient id="linear-gradient-13" x1="-16.5" x2="41.534" xlink:href="#linear-gradient" y1="44.5" y2="-13.534"/><path d="m61 10h-58a2 2 0 0 0 -2 2v40a2 2 0 0 0 2 2h58a2 2 0 0 0 2-2v-40a2 2 0 0 0 -2-2zm0 42h-58v-40h58z" fill="url(#linear-gradient)"/><path d="m35 34h-2v-9a1 1 0 0 0 -2 0v9h-2a1 1 0 0 0 -1 1v4a1 1 0 0 0 1 1h2v9a1 1 0 0 0 2 0v-9h2a1 1 0 0 0 1-1v-4a1 1 0 0 0 -1-1zm-1 4h-4v-2h4z" fill="url(#linear-gradient-2)"/><path d="m45 32h-2v-7a1 1 0 0 0 -2 0v7h-2a1 1 0 0 0 -1 1v4a1 1 0 0 0 1 1h2v11a1 1 0 0 0 2 0v-11h2a1 1 0 0 0 1-1v-4a1 1 0 0 0 -1-1zm-1 4h-4v-2h4z" fill="url(#linear-gradient-3)"/><path d="m55 34h-2v-9a1 1 0 0 0 -2 0v9h-2a1 1 0 0 0 -1 1v4a1 1 0 0 0 1 1h2v5a1 1 0 0 0 2 0v-5h2a1 1 0 0 0 1-1v-4a1 1 0 0 0 -1-1zm-1 4h-4v-2h4z" fill="url(#linear-gradient-4)"/><path d="m25 28h-2v-3a1 1 0 0 0 -2 0v3h-2a1 1 0 0 0 -1 1v4a1 1 0 0 0 1 1h2v15a1 1 0 0 0 2 0v-15h2a1 1 0 0 0 1-1v-4a1 1 0 0 0 -1-1zm-1 4h-4v-2h4z" fill="url(#linear-gradient-5)"/><path d="m15 37h-2v-12a1 1 0 0 0 -2 0v12h-2a1 1 0 0 0 -1 1v4a1 1 0 0 0 1 1h2v6a1 1 0 0 0 2 0v-6h2a1 1 0 0 0 1-1v-4a1 1 0 0 0 -1-1zm-1 4h-4v-2h4z" fill="url(#linear-gradient-6)"/><path d="m52 47a1 1 0 0 0 -1 1v1a1 1 0 0 0 2 0v-1a1 1 0 0 0 -1-1z" fill="url(#linear-gradient-7)"/><path d="m6 22h52a1 1 0 0 0 0-2h-52a1 1 0 0 0 0 2z" fill="url(#linear-gradient-8)"/><path d="m32 19a3 3 0 1 0 -3-3 3 3 0 0 0 3 3zm0-4a1 1 0 1 1 -1 1 1 1 0 0 1 1-1z" fill="url(#linear-gradient-9)"/><path d="m42 19a3 3 0 1 0 -3-3 3 3 0 0 0 3 3zm0-4a1 1 0 1 1 -1 1 1 1 0 0 1 1-1z" fill="url(#linear-gradient-10)"/><path d="m52 19a3 3 0 1 0 -3-3 3 3 0 0 0 3 3zm0-4a1 1 0 1 1 -1 1 1 1 0 0 1 1-1z" fill="url(#linear-gradient-11)"/><path d="m22 19a3 3 0 1 0 -3-3 3 3 0 0 0 3 3zm0-4a1 1 0 1 1 -1 1 1 1 0 0 1 1-1z" fill="url(#linear-gradient-12)"/><path d="m12 19a3 3 0 1 0 -3-3 3 3 0 0 0 3 3zm0-4a1 1 0 1 1 -1 1 1 1 0 0 1 1-1z" fill="url(#linear-gradient-13)"/></svg>