<svg height="512" viewBox="0 0 64 64" width="512" xmlns="http://www.w3.org/2000/svg" xmlns:xlink="http://www.w3.org/1999/xlink"><linearGradient id="linear-gradient" gradientUnits="userSpaceOnUse" x1="5.337" x2="62.372" y1="62.337" y2="5.302"><stop offset="0" stop-color="#003f8a"/><stop offset=".518" stop-color="#00d7df"/><stop offset="1" stop-color="#006df0"/></linearGradient><linearGradient id="linear-gradient-2" x1="1.5" x2="58.535" xlink:href="#linear-gradient" y1="58.5" y2="1.465"/><linearGradient id="linear-gradient-3" x1="1.061" x2="58.096" xlink:href="#linear-gradient" y1="58.061" y2="1.025"/><linearGradient id="linear-gradient-4" x1="-.25" x2="56.785" xlink:href="#linear-gradient" y1="56.75" y2="-.285"/><linearGradient id="linear-gradient-5" x1="2.75" x2="59.785" xlink:href="#linear-gradient" y1="59.75" y2="2.715"/><g id="Vdo_recorder" data-name="Vdo recorder"><path d="m62.525 19.149a1 1 0 0 0 -.972-.044l-14.553 7.277v-2.382a5.006 5.006 0 0 0 -5-5h-33v-4a3 3 0 0 1 3-3h9a3 3 0 0 0 3 3h22a3 3 0 0 0 3-3v-2a3 3 0 0 0 -3-3h-22a3 3 0 0 0 -3 3h-9a5.006 5.006 0 0 0 -5 5v4h-1a5.006 5.006 0 0 0 -5 5v24a5.006 5.006 0 0 0 5 5h36a5.006 5.006 0 0 0 5-5v-2.382l14.553 7.282a1 1 0 0 0 1.447-.9v-32a1 1 0 0 0 -.475-.851zm-39.525-9.149a1 1 0 0 1 1-1h22a1 1 0 0 1 1 1v2a1 1 0 0 1 -1 1h-22a1 1 0 0 1 -1-1zm22 38a3 3 0 0 1 -3 3h-36a3 3 0 0 1 -3-3v-24a3 3 0 0 1 3-3h36a3 3 0 0 1 3 3zm16 2.382-14-7v-14.764l14-7z" fill="url(#linear-gradient)"/><path d="m42 23h-36a1 1 0 0 0 -1 1v24a1 1 0 0 0 1 1h36a1 1 0 0 0 1-1v-24a1 1 0 0 0 -1-1zm-1 24h-34v-22h34z" fill="url(#linear-gradient-2)"/><path d="m21.535 41.885a1 1 0 0 0 1.033-.062l7.243-5a1 1 0 0 0 0-1.646l-7.243-5a1 1 0 0 0 -1.568.823v10a1 1 0 0 0 .535.885zm1.465-8.979 4.482 3.094-4.482 3.094z" fill="url(#linear-gradient-3)"/><path d="m9 46h5a1 1 0 0 0 0-2h-5a1 1 0 0 0 0 2z" fill="url(#linear-gradient-4)"/><path d="m17 46h1a1 1 0 0 0 0-2h-1a1 1 0 0 0 0 2z" fill="url(#linear-gradient-5)"/></g></svg>